# xmcd
#
# Track frame offsets:
#	150
#	36737
#	69068
#	91086
#	119457
#	148992
#	175958
#	204392
#	223713
#	241649
#
# Disc length: 3620 seconds
#
# Revision: 0
# Processed by: cddbd v1.5.2PL0 Copyright (c) Steve Scherf et al.
# Submitted via: VUPlayer 2.49
#
DISCID=8f0e220a
DTITLE=Blue Lunch - Saxophone Shootout 2 (Live At Nighttown)
DYEAR=2011
DGENRE=Blues Saxaphone
TTITLE0=Honeydripper
TTITLE1=Lowe Groovin
TTITLE2=Foothill Drive
TTITLE3=I Just Got Lucky
TTITLE4=Chinese Knock-Off
TTITLE5=Tenor Madness
TTITLE6=Rapid Shave
TTITLE7=Reconsider Baby
TTITLE8=If It Ain't Me
TTITLE9=Rib Joint
EXTD=
EXTT0=
EXTT1=
EXTT2=
EXTT3=
EXTT4=
EXTT5=
EXTT6=
EXTT7=
EXTT8=
EXTT9=
PLAYORDER=
